<mxfile host="Electron" agent="Mozilla/5.0 (X11; Linux x86_64) AppleWebKit/537.36 (KHTML, like Gecko) draw.io/28.1.2 Chrome/138.0.7204.243 Electron/37.4.0 Safari/537.36" version="28.1.2">
  <diagram name="Page-1" id="gcBdNCxkJajrDNFnazBR">
    <mxGraphModel dx="1188" dy="703" grid="1" gridSize="10" guides="1" tooltips="1" connect="1" arrows="1" fold="1" page="1" pageScale="1" pageWidth="850" pageHeight="1100" math="0" shadow="0">
      <root>
        <mxCell id="0" />
        <mxCell id="1" parent="0" />
        <mxCell id="galiyP6wN6AxvJgbhajs-15" style="edgeStyle=orthogonalEdgeStyle;rounded=0;orthogonalLoop=1;jettySize=auto;html=1;" edge="1" parent="1" source="galiyP6wN6AxvJgbhajs-1" target="galiyP6wN6AxvJgbhajs-2">
          <mxGeometry relative="1" as="geometry" />
        </mxCell>
        <mxCell id="galiyP6wN6AxvJgbhajs-18" style="edgeStyle=orthogonalEdgeStyle;rounded=0;orthogonalLoop=1;jettySize=auto;html=1;" edge="1" parent="1" source="galiyP6wN6AxvJgbhajs-1" target="galiyP6wN6AxvJgbhajs-3">
          <mxGeometry relative="1" as="geometry" />
        </mxCell>
        <mxCell id="galiyP6wN6AxvJgbhajs-47" style="edgeStyle=orthogonalEdgeStyle;rounded=0;orthogonalLoop=1;jettySize=auto;html=1;" edge="1" parent="1" source="galiyP6wN6AxvJgbhajs-1" target="galiyP6wN6AxvJgbhajs-46">
          <mxGeometry relative="1" as="geometry" />
        </mxCell>
        <mxCell id="galiyP6wN6AxvJgbhajs-1" value="Employé" style="shape=umlActor;verticalLabelPosition=bottom;verticalAlign=top;html=1;outlineConnect=0;" vertex="1" parent="1">
          <mxGeometry x="340" y="410" width="30" height="60" as="geometry" />
        </mxCell>
        <mxCell id="galiyP6wN6AxvJgbhajs-16" style="edgeStyle=orthogonalEdgeStyle;rounded=0;orthogonalLoop=1;jettySize=auto;html=1;" edge="1" parent="1" source="galiyP6wN6AxvJgbhajs-2" target="galiyP6wN6AxvJgbhajs-10">
          <mxGeometry relative="1" as="geometry" />
        </mxCell>
        <mxCell id="galiyP6wN6AxvJgbhajs-2" value="Manager" style="shape=umlActor;verticalLabelPosition=bottom;verticalAlign=top;html=1;outlineConnect=0;" vertex="1" parent="1">
          <mxGeometry x="340" y="620" width="30" height="60" as="geometry" />
        </mxCell>
        <mxCell id="galiyP6wN6AxvJgbhajs-17" style="edgeStyle=orthogonalEdgeStyle;rounded=0;orthogonalLoop=1;jettySize=auto;html=1;" edge="1" parent="1" source="galiyP6wN6AxvJgbhajs-3" target="galiyP6wN6AxvJgbhajs-11">
          <mxGeometry relative="1" as="geometry" />
        </mxCell>
        <mxCell id="galiyP6wN6AxvJgbhajs-3" value="Gestionnaire des&lt;div&gt;ressources humaines&lt;/div&gt;" style="shape=umlActor;verticalLabelPosition=bottom;verticalAlign=top;html=1;outlineConnect=0;" vertex="1" parent="1">
          <mxGeometry x="340" y="240" width="30" height="60" as="geometry" />
        </mxCell>
        <mxCell id="galiyP6wN6AxvJgbhajs-27" style="edgeStyle=orthogonalEdgeStyle;rounded=0;orthogonalLoop=1;jettySize=auto;html=1;dashed=1;" edge="1" parent="1" source="galiyP6wN6AxvJgbhajs-46" target="galiyP6wN6AxvJgbhajs-12">
          <mxGeometry relative="1" as="geometry">
            <mxPoint x="580" y="600" as="sourcePoint" />
            <Array as="points">
              <mxPoint x="450" y="590" />
              <mxPoint x="900" y="590" />
            </Array>
          </mxGeometry>
        </mxCell>
        <mxCell id="galiyP6wN6AxvJgbhajs-30" value="Include" style="edgeLabel;html=1;align=center;verticalAlign=middle;resizable=0;points=[];" vertex="1" connectable="0" parent="galiyP6wN6AxvJgbhajs-27">
          <mxGeometry x="-0.4924" y="-1" relative="1" as="geometry">
            <mxPoint x="11" y="-1" as="offset" />
          </mxGeometry>
        </mxCell>
        <mxCell id="galiyP6wN6AxvJgbhajs-43" style="edgeStyle=orthogonalEdgeStyle;rounded=0;orthogonalLoop=1;jettySize=auto;html=1;entryX=1;entryY=0.5;entryDx=0;entryDy=0;dashed=1;" edge="1" parent="1" source="galiyP6wN6AxvJgbhajs-8">
          <mxGeometry relative="1" as="geometry">
            <mxPoint x="541.4300000000037" y="439.9999999999998" as="targetPoint" />
          </mxGeometry>
        </mxCell>
        <mxCell id="galiyP6wN6AxvJgbhajs-44" value="include" style="edgeLabel;html=1;align=center;verticalAlign=middle;resizable=0;points=[];" vertex="1" connectable="0" parent="galiyP6wN6AxvJgbhajs-43">
          <mxGeometry x="0.0129" y="-2" relative="1" as="geometry">
            <mxPoint as="offset" />
          </mxGeometry>
        </mxCell>
        <mxCell id="galiyP6wN6AxvJgbhajs-28" style="edgeStyle=orthogonalEdgeStyle;rounded=0;orthogonalLoop=1;jettySize=auto;html=1;dashed=1;" edge="1" parent="1" source="galiyP6wN6AxvJgbhajs-10" target="galiyP6wN6AxvJgbhajs-12">
          <mxGeometry relative="1" as="geometry">
            <Array as="points">
              <mxPoint x="920" y="650" />
            </Array>
          </mxGeometry>
        </mxCell>
        <mxCell id="galiyP6wN6AxvJgbhajs-31" value="Include" style="edgeLabel;html=1;align=center;verticalAlign=middle;resizable=0;points=[];" vertex="1" connectable="0" parent="galiyP6wN6AxvJgbhajs-28">
          <mxGeometry x="-0.2578" y="-3" relative="1" as="geometry">
            <mxPoint x="29" y="-3" as="offset" />
          </mxGeometry>
        </mxCell>
        <mxCell id="galiyP6wN6AxvJgbhajs-10" value="Valider ou refuser les demandes de congés" style="ellipse;whiteSpace=wrap;html=1;" vertex="1" parent="1">
          <mxGeometry x="600" y="600" width="121.43" height="100" as="geometry" />
        </mxCell>
        <mxCell id="galiyP6wN6AxvJgbhajs-26" style="edgeStyle=orthogonalEdgeStyle;rounded=0;orthogonalLoop=1;jettySize=auto;html=1;dashed=1;" edge="1" parent="1" source="galiyP6wN6AxvJgbhajs-11" target="galiyP6wN6AxvJgbhajs-12">
          <mxGeometry relative="1" as="geometry" />
        </mxCell>
        <mxCell id="galiyP6wN6AxvJgbhajs-29" value="Include" style="edgeLabel;html=1;align=center;verticalAlign=middle;resizable=0;points=[];" vertex="1" connectable="0" parent="galiyP6wN6AxvJgbhajs-26">
          <mxGeometry x="-0.3911" y="-4" relative="1" as="geometry">
            <mxPoint x="24" y="-4" as="offset" />
          </mxGeometry>
        </mxCell>
        <mxCell id="galiyP6wN6AxvJgbhajs-11" value="Assigner un manager à un employé" style="ellipse;whiteSpace=wrap;html=1;" vertex="1" parent="1">
          <mxGeometry x="490" y="220" width="121.43" height="100" as="geometry" />
        </mxCell>
        <mxCell id="galiyP6wN6AxvJgbhajs-12" value="Se connecter" style="ellipse;whiteSpace=wrap;html=1;" vertex="1" parent="1">
          <mxGeometry x="850" y="420" width="121.43" height="80" as="geometry" />
        </mxCell>
        <mxCell id="galiyP6wN6AxvJgbhajs-34" style="edgeStyle=orthogonalEdgeStyle;rounded=0;orthogonalLoop=1;jettySize=auto;html=1;dashed=1;" edge="1" parent="1" target="galiyP6wN6AxvJgbhajs-8">
          <mxGeometry relative="1" as="geometry">
            <mxPoint x="491.42999999999984" y="590.0000000000002" as="sourcePoint" />
            <mxPoint x="620" y="510" as="targetPoint" />
            <Array as="points">
              <mxPoint x="580" y="590" />
            </Array>
          </mxGeometry>
        </mxCell>
        <mxCell id="galiyP6wN6AxvJgbhajs-35" value="Include" style="edgeLabel;html=1;align=center;verticalAlign=middle;resizable=0;points=[];" vertex="1" connectable="0" parent="galiyP6wN6AxvJgbhajs-34">
          <mxGeometry x="-0.5236" y="1" relative="1" as="geometry">
            <mxPoint x="24" y="1" as="offset" />
          </mxGeometry>
        </mxCell>
        <mxCell id="galiyP6wN6AxvJgbhajs-46" value="Gérer ses congés" style="ellipse;whiteSpace=wrap;html=1;" vertex="1" parent="1">
          <mxGeometry x="420" y="430" width="70" height="60" as="geometry" />
        </mxCell>
        <mxCell id="galiyP6wN6AxvJgbhajs-49" style="edgeStyle=orthogonalEdgeStyle;rounded=0;orthogonalLoop=1;jettySize=auto;html=1;dashed=1;" edge="1" parent="1" source="galiyP6wN6AxvJgbhajs-48" target="galiyP6wN6AxvJgbhajs-46">
          <mxGeometry relative="1" as="geometry" />
        </mxCell>
        <mxCell id="galiyP6wN6AxvJgbhajs-50" value="extend" style="edgeLabel;html=1;align=center;verticalAlign=middle;resizable=0;points=[];" vertex="1" connectable="0" parent="galiyP6wN6AxvJgbhajs-49">
          <mxGeometry x="-0.3835" y="2" relative="1" as="geometry">
            <mxPoint as="offset" />
          </mxGeometry>
        </mxCell>
        <mxCell id="galiyP6wN6AxvJgbhajs-48" value="Poser" style="ellipse;whiteSpace=wrap;html=1;" vertex="1" parent="1">
          <mxGeometry x="510" y="350" width="70" height="60" as="geometry" />
        </mxCell>
        <mxCell id="galiyP6wN6AxvJgbhajs-51" style="edgeStyle=orthogonalEdgeStyle;rounded=0;orthogonalLoop=1;jettySize=auto;html=1;dashed=1;" edge="1" source="galiyP6wN6AxvJgbhajs-53" parent="1" target="galiyP6wN6AxvJgbhajs-46">
          <mxGeometry relative="1" as="geometry">
            <mxPoint x="454.9999768793688" y="479.9955172413793" as="targetPoint" />
            <Array as="points">
              <mxPoint x="460" y="540" />
            </Array>
          </mxGeometry>
        </mxCell>
        <mxCell id="galiyP6wN6AxvJgbhajs-52" value="extend" style="edgeLabel;html=1;align=center;verticalAlign=middle;resizable=0;points=[];" vertex="1" connectable="0" parent="galiyP6wN6AxvJgbhajs-51">
          <mxGeometry x="-0.3835" y="2" relative="1" as="geometry">
            <mxPoint as="offset" />
          </mxGeometry>
        </mxCell>
        <mxCell id="galiyP6wN6AxvJgbhajs-53" value="Modifier" style="ellipse;whiteSpace=wrap;html=1;" vertex="1" parent="1">
          <mxGeometry x="510" y="510.03" width="70" height="60" as="geometry" />
        </mxCell>
        <mxCell id="galiyP6wN6AxvJgbhajs-54" style="edgeStyle=orthogonalEdgeStyle;rounded=0;orthogonalLoop=1;jettySize=auto;html=1;dashed=1;" edge="1" source="galiyP6wN6AxvJgbhajs-56" parent="1" target="galiyP6wN6AxvJgbhajs-46">
          <mxGeometry relative="1" as="geometry">
            <mxPoint x="474.9999768793688" y="459.9655172413793" as="targetPoint" />
          </mxGeometry>
        </mxCell>
        <mxCell id="galiyP6wN6AxvJgbhajs-55" value="extend" style="edgeLabel;html=1;align=center;verticalAlign=middle;resizable=0;points=[];" vertex="1" connectable="0" parent="galiyP6wN6AxvJgbhajs-54">
          <mxGeometry x="-0.3835" y="2" relative="1" as="geometry">
            <mxPoint x="-8" y="-2" as="offset" />
          </mxGeometry>
        </mxCell>
        <mxCell id="galiyP6wN6AxvJgbhajs-56" value="Supprimer" style="ellipse;whiteSpace=wrap;html=1;" vertex="1" parent="1">
          <mxGeometry x="560" y="430" width="70" height="60" as="geometry" />
        </mxCell>
        <mxCell id="galiyP6wN6AxvJgbhajs-58" style="edgeStyle=orthogonalEdgeStyle;rounded=0;orthogonalLoop=1;jettySize=auto;html=1;dashed=1;" edge="1" parent="1" source="galiyP6wN6AxvJgbhajs-57" target="galiyP6wN6AxvJgbhajs-56">
          <mxGeometry relative="1" as="geometry" />
        </mxCell>
        <mxCell id="galiyP6wN6AxvJgbhajs-59" value="extend" style="edgeLabel;html=1;align=center;verticalAlign=middle;resizable=0;points=[];" vertex="1" connectable="0" parent="galiyP6wN6AxvJgbhajs-58">
          <mxGeometry x="0.2275" y="3" relative="1" as="geometry">
            <mxPoint x="15" y="-3" as="offset" />
          </mxGeometry>
        </mxCell>
        <mxCell id="galiyP6wN6AxvJgbhajs-57" value="Laisser un commentaire" style="ellipse;whiteSpace=wrap;html=1;" vertex="1" parent="1">
          <mxGeometry x="719.9999999999999" y="430" width="70" height="60" as="geometry" />
        </mxCell>
      </root>
    </mxGraphModel>
  </diagram>
</mxfile>
